<svg width="156" height="44" viewBox="0 0 156 44" fill="none" xmlns="http://www.w3.org/2000/svg">
<path d="M0 10.8279V32.4838L18.7539 43.3118L37.5078 32.4838V10.8279L18.7554 0L0 10.8279ZM36.1957 31.7245L36.1273 31.7632L18.7554 41.7932L1.31504 31.7245V11.5873L1.3834 11.5486L18.7554 1.51862L36.1957 11.5873V31.7245Z" fill="#FCBC2B"/>
<path d="M30.9026 12.073C30.4018 11.5232 29.7733 11.3137 29.0437 11.3137C22.1445 11.3167 15.2439 11.3152 8.34471 11.3167C8.19018 11.3167 8.03564 11.3226 7.88259 11.3405C6.86621 11.4623 6.05787 12.2484 5.91968 13.2425C5.77257 14.2989 6.32534 15.2722 7.36846 15.6645C8.25407 15.9988 9.28679 15.7804 9.9406 14.8963C10.1828 14.5694 10.3641 14.2113 10.3567 13.7729H9.51116C9.50522 13.7952 9.49928 13.8205 9.49482 13.8457C9.39823 14.4119 8.97177 14.8309 8.40861 14.9379C7.82761 15.0479 7.25256 14.7967 6.942 14.2989C6.62995 13.7967 6.65818 13.241 7.00292 12.7551C7.34171 12.2796 7.82018 12.1637 8.367 12.1637C15.2572 12.1666 22.1475 12.1666 29.0377 12.1666C29.1432 12.1666 29.2502 12.1652 29.3557 12.1756C30.0452 12.2395 30.6098 12.8115 30.641 13.4787C30.6767 14.2113 30.1284 14.8651 29.4181 14.9528C28.5905 15.0553 27.9248 14.4461 27.8549 13.7848C27.8549 13.7804 27.8534 13.7774 27.852 13.7729H27.005C27.0094 13.8769 27.0154 13.9706 27.0377 14.0582C27.375 15.3406 28.5399 16.0672 29.858 15.7195C31.439 15.3034 32.0022 13.2796 30.9026 12.073Z" fill="white"/>
<path d="M25.326 9.38501H12.1086V10.2483H25.326V9.38501Z" fill="white"/>
<path d="M17.1919 14.782H16.3286V36.6816H16.4074L17.1919 35.8777V14.782Z" fill="white"/>
<path d="M19.1177 14.782H18.2529V34.79L19.1177 33.9044V14.782Z" fill="white"/>
<path d="M21.0433 14.782H20.1785V32.8167L21.0433 31.9311V14.782Z" fill="white"/>
<path d="M22.9244 13.2009H14.4175V14.0643H22.9244V13.2009Z" fill="white"/>
<path d="M4.01772 24.2085L7.98811 16.9572L11.9882 24.2085H12.5172L7.98514 15.9973L3.4917 24.2085H4.01772Z" fill="white"/>
<path d="M10.2021 24.7939H3.35938C4.19595 26.5057 5.9538 27.6856 7.98655 27.6856C10.0148 27.6856 11.7682 26.5132 12.6063 24.8088C11.8173 24.8994 10.9911 24.7939 10.2021 24.7939Z" fill="white"/>
<path d="M25.5622 24.2085L29.5311 16.9572L33.5312 24.2085H34.0602L29.5296 15.9973L25.0347 24.2085H25.5622Z" fill="white"/>
<path d="M31.745 24.7939H24.9023C25.7389 26.5057 27.4968 27.6856 29.5295 27.6856C31.5578 27.6856 33.3112 26.5132 34.1493 24.8088C33.3602 24.8994 32.5356 24.7939 31.745 24.7939Z" fill="white"/>
<path d="M43.6863 29.4866L50.5944 13.2246H50.7444L57.6525 29.4866H54.7772L49.9287 17.1296L51.7088 15.9275L46.1321 29.4866H43.6863Z" fill="white"/>
<path d="M65.0138 13.8696C65.8727 13.8696 66.6587 13.9811 67.3735 14.2025C68.0882 14.4239 68.6959 14.7493 69.1967 15.1787C69.6975 15.6082 70.0868 16.1342 70.3661 16.7553C70.6455 17.3779 70.7852 18.0897 70.7852 18.8906C70.7852 19.5057 70.6915 20.1209 70.5058 20.7361C70.3201 21.3513 70.0155 21.9055 69.5935 22.3988C69.1714 22.8922 68.6172 23.2919 67.9307 23.5995C67.2442 23.9071 66.3928 24.0601 65.3779 24.0601H63.1252V29.4882H60.6155V13.8696H65.0138ZM65.3571 21.6574C65.9143 21.6574 66.3794 21.5682 66.7509 21.3899C67.1224 21.2101 67.4121 20.9857 67.6201 20.7138C67.8267 20.4419 67.9768 20.1521 68.0704 19.8445C68.164 19.537 68.21 19.2472 68.21 18.9753C68.21 18.7182 68.167 18.4359 68.0808 18.1283C67.9946 17.8207 67.8475 17.528 67.6409 17.2486C67.4329 16.9693 67.1506 16.7375 66.794 16.5517C66.4359 16.366 65.9856 16.2724 65.4418 16.2724H63.1252V21.6574H65.3571V21.6574ZM68.06 23.1374L72.0512 29.4882H69.1551L65.0792 23.2027L68.06 23.1374Z" fill="white"/>
<path d="M78.9563 13.8682C80.5433 13.8682 81.7989 14.1891 82.7217 14.834C83.6444 15.4774 84.1051 16.4641 84.1051 17.794C84.1051 18.6811 83.897 19.4359 83.4825 20.057C83.0679 20.6797 82.4988 21.1581 81.7766 21.4939C81.0545 21.8298 80.206 22.0125 79.2342 22.0408L78.8479 20.7109C80.0069 20.7257 81.0366 20.907 81.9371 21.2577C82.8376 21.6084 83.5493 22.1017 84.0724 22.7377C84.5939 23.3736 84.8555 24.1285 84.8555 25.0007C84.8555 25.8165 84.7084 26.506 84.4156 27.0706C84.1229 27.6353 83.7262 28.0974 83.2254 28.454C82.7246 28.8121 82.16 29.0722 81.5299 29.2371C80.8999 29.402 80.2431 29.4838 79.5566 29.4838H74.6873V13.8682H78.9563ZM79.3427 20.5192C80.1005 20.5192 80.6547 20.3022 81.0054 19.8654C81.3561 19.43 81.5314 18.9173 81.5314 18.3319C81.5314 17.6172 81.31 17.0956 80.8657 16.7657C80.4229 16.4373 79.8211 16.2724 79.0633 16.2724H77.197V20.5207H79.3427V20.5192ZM79.4496 27.1702C79.9786 27.1702 80.4586 27.0959 80.8865 26.9458C81.316 26.7957 81.6592 26.5595 81.9163 26.237C82.1734 25.9161 82.3026 25.5119 82.3026 25.0245C82.3026 24.4807 82.1526 24.0586 81.8524 23.7585C81.5522 23.4583 81.1733 23.2429 80.7157 23.1151C80.258 22.9858 79.778 22.9219 79.2788 22.9219H77.197V27.1702H79.4496V27.1702Z" fill="white"/>
<path d="M100.092 28.2652C99.8633 28.4228 99.523 28.6159 99.0728 28.8448C98.6225 29.0736 98.0861 29.2712 97.4635 29.4347C96.8409 29.5996 96.1514 29.6739 95.3936 29.6605C94.1781 29.6457 93.083 29.4287 92.1112 29.0067C91.1379 28.5847 90.3162 28.0126 89.6446 27.2905C88.9729 26.5683 88.4544 25.7392 88.0888 24.8016C87.7248 23.8654 87.542 22.8669 87.542 21.8089C87.542 20.6216 87.7277 19.5339 88.0992 18.5473C88.4707 17.5606 88.9997 16.7062 89.6862 15.9841C90.3727 15.2619 91.1884 14.7002 92.132 14.3005C93.0756 13.9008 94.1053 13.7002 95.2213 13.7002C96.2079 13.7002 97.0906 13.8324 97.8707 14.0969C98.6508 14.3614 99.3046 14.6586 99.8336 14.987L98.8469 17.3259C98.4457 17.0539 97.9464 16.782 97.3446 16.5101C96.7443 16.2382 96.0638 16.1029 95.306 16.1029C94.6195 16.1029 93.9612 16.2426 93.3326 16.5205C92.7026 16.7998 92.1528 17.1936 91.6803 17.7003C91.2078 18.2085 90.8333 18.7984 90.554 19.47C90.2746 20.1432 90.1349 20.8728 90.1349 21.6588C90.1349 22.4746 90.2597 23.225 90.5109 23.9115C90.7605 24.598 91.1186 25.1879 91.5837 25.6812C92.0488 26.1746 92.606 26.5609 93.2569 26.8402C93.9077 27.1196 94.6403 27.2578 95.456 27.2578C96.2569 27.2578 96.9613 27.133 97.569 26.8819C98.1768 26.6322 98.6671 26.3499 99.0386 26.0349L100.092 28.2652Z" fill="#FCBC2B"/>
<path d="M116.097 13.8696V29.4882H113.608V22.8372H105.927V29.4882H103.417V13.8696H105.927V20.4553H113.608V13.8696H116.097Z" fill="#FCBC2B"/>
<path d="M118.778 29.4883L125.686 13.2263H125.837L132.745 29.4883H129.87L125.021 17.1313L126.802 15.9292L121.223 29.4883H118.778Z" fill="#FCBC2B"/>
<path d="M135.405 13.8696H137.915V29.4882H135.405V13.8696Z" fill="#FCBC2B"/>
<path d="M155.936 30.047L143.943 18.4181L144.673 18.7182L144.737 29.4883H142.205V13.3333H142.334L154.134 24.9621L153.554 24.7897L153.511 13.8697H156V30.047H155.936Z" fill="#FCBC2B"/>
</svg>
