<svg width="551" height="153" viewBox="0 0 551 153" fill="none" xmlns="http://www.w3.org/2000/svg">
<path d="M0 38.25V114.75L66.2157 153L132.431 114.75V38.25L66.2209 0L0 38.25ZM127.799 112.068L127.557 112.204L66.2209 147.635L4.64312 112.068V40.9323L4.88446 40.7958L66.2209 5.36455L127.799 40.9323V112.068V112.068Z" fill="#FCBC2B"/>
<path d="M109.109 42.6486C107.341 40.7064 105.122 39.9663 102.546 39.9663C78.1868 39.9768 53.8222 39.9716 29.4629 39.9768C28.9172 39.9768 28.3716 39.9978 27.8312 40.0608C24.2426 40.4912 21.3886 43.268 20.9006 46.7796C20.3812 50.5117 22.3329 53.9498 26.0159 55.3356C29.1428 56.5166 32.7891 55.745 35.0976 52.6218C35.9527 51.467 36.5928 50.202 36.5666 48.6535H33.5813C33.5604 48.7323 33.5394 48.8215 33.5236 48.9107C33.1826 50.9106 31.6769 52.3909 29.6885 52.7688C27.6371 53.1572 25.6067 52.2701 24.5102 50.5117C23.4084 48.7375 23.5081 46.7744 24.7253 45.0579C25.9215 43.3782 27.6109 42.9688 29.5416 42.9688C53.8694 42.9793 78.1973 42.9793 102.525 42.9793C102.898 42.9793 103.275 42.974 103.648 43.0108C106.082 43.2365 108.076 45.2574 108.186 47.6142C108.312 50.202 106.376 52.5116 103.868 52.8213C100.946 53.1835 98.5956 51.0314 98.349 48.6955C98.349 48.6798 98.3437 48.6693 98.3385 48.6535H95.348C95.3637 49.021 95.3847 49.3516 95.4634 49.6613C96.6544 54.1913 100.768 56.7581 105.421 55.5298C111.003 54.0601 112.992 46.9108 109.109 42.6486Z" fill="#4D4CBB"/>
<path d="M89.42 33.1531H42.7527V36.2028H89.42V33.1531Z" fill="#4D4CBB"/>
<path d="M60.7023 52.2175H57.6526V129.578H57.9308L60.7023 126.739V52.2175Z" fill="#4D4CBB"/>
<path d="M67.5017 52.2175H64.4468V122.896L67.5017 119.768V52.2175Z" fill="#4D4CBB"/>
<path d="M74.3001 52.2175H71.2451V115.926L74.3001 112.797V52.2175Z" fill="#4D4CBB"/>
<path d="M80.9406 46.6331H50.9045V49.6828H80.9406V46.6331Z" fill="#4D4CBB"/>
<path d="M14.1859 85.5176L28.2044 59.9021L42.3279 85.5176H44.1956L28.1939 56.5112L12.3286 85.5176H14.1859Z" fill="#4D4CBB"/>
<path d="M36.0206 87.5852H11.8606C14.8144 93.6321 21.0209 97.7999 28.1981 97.7999C35.3595 97.7999 41.5504 93.6584 44.5094 87.6377C41.7235 87.9579 38.8065 87.5852 36.0206 87.5852Z" fill="#4D4CBB"/>
<path d="M90.2536 85.5176L104.267 59.9021L118.39 85.5176H120.258L104.262 56.5112L88.3911 85.5176H90.2536Z" fill="#4D4CBB"/>
<path d="M112.085 87.5852H87.9246C90.8783 93.6321 97.0849 97.7999 104.262 97.7999C111.423 97.7999 117.614 93.6584 120.573 87.6377C117.787 87.9579 114.876 87.5852 112.085 87.5852Z" fill="#4D4CBB"/>
<path d="M154.246 104.162L178.637 46.7163H179.167L203.558 104.162H193.406L176.287 60.5109L182.572 56.2644L162.882 104.162H154.246Z" fill="#4D4CBB"/>
<path d="M229.549 48.9949C232.581 48.9949 235.357 49.3885 237.88 50.1707C240.404 50.9528 242.55 52.1023 244.318 53.6193C246.086 55.1363 247.46 56.9945 248.447 59.1886C249.433 61.3879 249.926 63.9022 249.926 66.7315C249.926 68.9046 249.596 71.0777 248.94 73.2508C248.284 75.424 247.208 77.3819 245.718 79.1246C244.228 80.8672 242.272 82.2792 239.848 83.3658C237.424 84.4524 234.418 84.993 230.834 84.993H222.881V104.168H214.019V48.9949H229.549ZM230.761 76.5053C232.728 76.5053 234.37 76.1903 235.682 75.5604C236.994 74.9253 238.017 74.1327 238.751 73.1721C239.48 72.2115 240.01 71.188 240.341 70.1014C240.671 69.0148 240.834 67.9913 240.834 67.0307C240.834 66.1226 240.682 65.1253 240.378 64.0387C240.073 62.9522 239.554 61.9181 238.825 60.9313C238.09 59.9444 237.093 59.1256 235.834 58.4695C234.57 57.8133 232.98 57.4826 231.06 57.4826H222.881V76.5053H230.761V76.5053ZM240.304 81.7333L254.396 104.168H244.171L229.78 81.9643L240.304 81.7333Z" fill="#4D4CBB"/>
<path d="M278.777 48.9895C284.38 48.9895 288.813 50.1233 292.071 52.4014C295.329 54.6742 296.956 58.1596 296.956 62.8576C296.956 65.9912 296.221 68.6578 294.757 70.8519C293.294 73.0513 291.284 74.7415 288.735 75.9277C286.185 77.114 283.189 77.7597 279.758 77.8594L278.394 73.1615C282.486 73.214 286.122 73.8544 289.301 75.0931C292.481 76.3319 294.994 78.0746 296.84 80.3212C298.682 82.5678 299.605 85.2344 299.605 88.3156C299.605 91.1973 299.086 93.6329 298.052 95.6275C297.019 97.6222 295.618 99.2546 293.85 100.514C292.082 101.779 290.088 102.698 287.864 103.281C285.639 103.863 283.32 104.152 280.896 104.152H263.704V48.9895H278.777ZM280.141 72.4844C282.817 72.4844 284.773 71.718 286.012 70.1748C287.25 68.6368 287.869 66.8259 287.869 64.7577C287.869 62.2329 287.087 60.3905 285.518 59.2252C283.955 58.0652 281.83 57.4825 279.154 57.4825H272.565V72.4896H280.141V72.4844ZM280.519 95.9792C282.386 95.9792 284.081 95.7168 285.592 95.1866C287.108 94.6564 288.32 93.8218 289.228 92.6828C290.135 91.549 290.592 90.1212 290.592 88.3995C290.592 86.4784 290.062 84.9876 289.002 83.9273C287.942 82.867 286.604 82.1059 284.989 81.6545C283.373 81.1978 281.678 80.9721 279.915 80.9721H272.565V95.9792H280.519V95.9792Z" fill="#4D4CBB"/>
<path d="M353.402 99.8479C352.594 100.404 351.393 101.087 349.803 101.895C348.214 102.703 346.32 103.402 344.121 103.979C341.923 104.562 339.489 104.824 336.813 104.777C332.522 104.724 328.655 103.958 325.224 102.467C321.787 100.976 318.886 98.9556 316.515 96.4045C314.143 93.8535 312.312 90.9245 311.022 87.6123C309.736 84.3054 309.091 80.778 309.091 77.0407C309.091 72.8467 309.747 69.0043 311.058 65.519C312.37 62.0336 314.238 59.0154 316.661 56.4643C319.085 53.9133 321.966 51.9291 325.297 50.5171C328.629 49.1051 332.264 48.3965 336.205 48.3965C339.688 48.3965 342.805 48.8637 345.559 49.798C348.313 50.7323 350.622 51.7821 352.49 52.9422L349.006 61.2042C347.589 60.2436 345.827 59.2831 343.702 58.3225C341.582 57.3619 339.179 56.8842 336.504 56.8842C334.08 56.8842 331.756 57.3776 329.536 58.3592C327.312 59.346 325.371 60.7371 323.702 62.527C322.034 64.3222 320.712 66.4061 319.725 68.7786C318.739 71.1565 318.246 73.7338 318.246 76.5105C318.246 79.3923 318.687 82.043 319.573 84.4681C320.455 86.8932 321.719 88.9771 323.361 90.7198C325.003 92.4625 326.971 93.8272 329.269 94.814C331.567 95.8009 334.153 96.289 337.033 96.289C339.861 96.289 342.348 95.8481 344.494 94.961C346.64 94.0792 348.371 93.0818 349.683 91.969L353.402 99.8479Z" fill="#FCBC2B"/>
<path d="M409.912 48.9949V104.168H401.124V80.673H374.005V104.168H365.144V48.9949H374.005V72.2588H401.124V48.9949H409.912Z" fill="#FCBC2B"/>
<path d="M419.376 104.168L443.767 46.7224H444.302L468.693 104.168H458.541L441.422 60.517L447.707 56.2705L428.012 104.168H419.376Z" fill="#FCBC2B"/>
<path d="M478.084 48.9949H486.946V104.168H478.084V48.9949Z" fill="#FCBC2B"/>
<path d="M550.574 106.142L508.23 65.0624L510.806 66.1227L511.032 104.168H502.092V47.1001H502.548L544.21 88.1793L542.164 87.5704L542.012 48.995H550.8V106.142H550.574V106.142Z" fill="#FCBC2B"/>
</svg>
